<svg xmlns="http://www.w3.org/2000/svg" viewBox="0 0 2000 2000" id="BusinessPresentation">
  <polygon fill="#ffffff" points="854.11 161.55 854.11 201.56 854.11 241.58 854.11 281.59 854.11 321.6 854.11 361.61 854.11 401.62 854.11 441.63 854.11 481.64 854.11 521.65 854.11 561.66 854.11 601.67 854.11 641.68 854.11 681.69 854.11 721.7 854.11 761.72 854.11 801.73 854.11 841.74 854.11 881.75 854.11 921.76 854.11 961.77 854.11 1001.78 854.11 1041.79 854.11 1081.8 854.11 1121.81 854.11 1161.82 854.11 1201.83 854.11 1241.84 854.11 1281.86 854.11 1321.86 854.11 1361.88 1350.9 1361.88 1350.9 1321.86 1350.9 1281.86 1350.9 1241.84 1350.9 1201.83 1350.9 1161.82 1350.9 1121.81 1350.9 1081.8 1350.9 1041.79 1350.9 1001.78 1350.9 961.77 1350.9 921.76 1350.9 881.75 1350.9 841.74 1350.9 801.73 1350.9 761.72 1350.9 721.7 1350.9 681.69 1350.9 641.68 1350.9 601.67 1350.9 561.66 1350.9 521.65 1350.9 481.64 1350.9 441.63 1350.9 401.62 1350.9 361.61 1350.9 321.6 1350.9 281.59 1350.9 241.58 1350.9 201.56 1350.9 161.55 1350.9 83.38 854.11 83.38 854.11 161.55" class="colorffffff svgShape"></polygon>
  <polygon fill="#ffffff" points="1454.67 83.38 1454.67 161.55 1454.67 201.56 1454.67 241.58 1454.67 281.59 1454.67 321.6 1454.67 361.61 1454.67 401.62 1454.67 441.63 1454.67 481.64 1454.67 521.65 1454.67 561.66 1454.67 601.67 1454.67 641.68 1454.67 681.69 1454.67 721.7 1454.67 761.72 1454.67 801.73 1454.67 841.74 1454.67 881.75 1454.67 921.76 1454.67 961.77 1454.67 1001.78 1454.67 1041.79 1454.67 1081.8 1454.67 1121.81 1454.67 1161.82 1454.67 1201.83 1454.67 1241.84 1454.67 1281.86 1454.67 1321.86 1454.67 1361.88 1951.45 1361.88 1951.45 1321.86 1951.45 1281.86 1951.45 1241.84 1951.45 1201.83 1951.45 1161.82 1951.45 1121.81 1951.45 1081.8 1951.45 1041.79 1951.45 1001.78 1951.45 961.77 1951.45 921.76 1951.45 881.75 1951.45 841.74 1951.45 801.73 1951.45 761.72 1951.45 721.7 1951.45 681.69 1951.45 641.68 1951.45 601.67 1951.45 561.66 1951.45 521.65 1951.45 481.64 1951.45 441.63 1951.45 401.62 1951.45 361.61 1951.45 321.6 1951.45 281.59 1951.45 241.58 1951.45 201.56 1951.45 161.55 1951.45 83.38 1454.67 83.38" class="colorffffff svgShape"></polygon>
  <polygon fill="#ffffff" points="253.56 161.55 253.56 201.56 253.56 241.58 253.56 281.59 253.56 321.6 253.56 361.61 253.56 401.62 253.56 441.63 253.56 481.64 253.56 521.65 253.56 561.66 253.56 601.67 253.56 641.68 253.56 681.69 253.56 721.7 253.56 761.72 253.56 801.73 253.56 841.74 253.56 881.75 253.56 921.76 253.56 961.77 253.56 1001.78 253.56 1041.79 253.56 1081.8 253.56 1121.81 253.56 1161.82 253.56 1201.83 253.56 1241.84 253.56 1281.86 253.56 1321.86 253.56 1361.88 750.34 1361.88 750.34 1321.86 750.34 1281.86 750.34 1241.84 750.34 1201.83 750.34 1161.82 750.34 1121.81 750.34 1081.8 750.34 1041.79 750.34 1001.78 750.34 961.77 750.34 921.76 750.34 881.75 750.34 841.74 750.34 801.73 750.34 761.72 750.34 721.7 750.34 681.69 750.34 641.68 750.34 601.67 750.34 561.66 750.34 521.65 750.34 481.64 750.34 441.63 750.34 401.62 750.34 361.61 750.34 321.6 750.34 281.59 750.34 241.58 750.34 201.56 750.34 161.55 750.34 83.38 253.56 83.38 253.56 161.55" class="colorffffff svgShape"></polygon>
  <g opacity=".55" fill="#000000" class="color000000 svgShape">
    <rect width="496.79" height="40.01" x="854.11" y="241.58" fill="#ece6e4" class="colore4e6ec svgShape"></rect>
    <rect width="496.79" height="78.17" x="854.11" y="83.38" fill="#f7f6f6" class="colorf6f6f7 svgShape"></rect>
    <rect width="496.79" height="40.01" x="854.11" y="161.55" fill="#ece6e4" class="colore4e6ec svgShape"></rect>
    <rect width="496.79" height="40.01" x="854.11" y="201.56" fill="#f7f6f6" class="colorf6f6f7 svgShape"></rect>
    <rect width="496.79" height="40.01" x="854.11" y="281.59" fill="#f7f6f6" class="colorf6f6f7 svgShape"></rect>
    <rect width="496.79" height="40.01" x="854.11" y="321.6" fill="#ece6e4" class="colore4e6ec svgShape"></rect>
    <rect width="496.79" height="40.01" x="854.11" y="361.61" fill="#f7f6f6" class="colorf6f6f7 svgShape"></rect>
    <rect width="496.79" height="40.01" x="854.11" y="401.62" fill="#ece6e4" class="colore4e6ec svgShape"></rect>
    <rect width="496.79" height="40.01" x="854.11" y="441.63" fill="#f7f6f6" class="colorf6f6f7 svgShape"></rect>
    <rect width="496.79" height="40.01" x="854.11" y="481.64" fill="#ece6e4" class="colore4e6ec svgShape"></rect>
    <rect width="496.79" height="40.01" x="854.11" y="521.65" fill="#f7f6f6" class="colorf6f6f7 svgShape"></rect>
    <rect width="496.79" height="40.01" x="854.11" y="561.66" fill="#ece6e4" class="colore4e6ec svgShape"></rect>
    <rect width="496.79" height="40.01" x="854.11" y="601.67" fill="#f7f6f6" class="colorf6f6f7 svgShape"></rect>
    <rect width="496.79" height="40.01" x="854.11" y="641.68" fill="#ece6e4" class="colore4e6ec svgShape"></rect>
    <rect width="496.79" height="40.01" x="854.11" y="681.69" fill="#f7f6f6" class="colorf6f6f7 svgShape"></rect>
    <rect width="496.79" height="40.01" x="854.11" y="721.7" fill="#ece6e4" class="colore4e6ec svgShape"></rect>
    <rect width="496.79" height="40.01" x="854.11" y="761.71" fill="#f7f6f6" class="colorf6f6f7 svgShape"></rect>
    <rect width="496.79" height="40.01" x="854.11" y="801.73" fill="#ece6e4" class="colore4e6ec svgShape"></rect>
    <rect width="496.79" height="40.01" x="854.11" y="841.74" fill="#f7f6f6" class="colorf6f6f7 svgShape"></rect>
    <rect width="496.79" height="40.01" x="854.11" y="881.75" fill="#ece6e4" class="colore4e6ec svgShape"></rect>
    <rect width="496.79" height="40.01" x="854.11" y="921.76" fill="#f7f6f6" class="colorf6f6f7 svgShape"></rect>
    <rect width="496.79" height="40.01" x="854.11" y="961.77" fill="#ece6e4" class="colore4e6ec svgShape"></rect>
    <rect width="496.79" height="40.01" x="854.11" y="1001.78" fill="#f7f6f6" class="colorf6f6f7 svgShape"></rect>
    <rect width="496.79" height="40.01" x="854.11" y="1041.79" fill="#ece6e4" class="colore4e6ec svgShape"></rect>
    <rect width="496.79" height="40.01" x="854.11" y="1081.8" fill="#f7f6f6" class="colorf6f6f7 svgShape"></rect>
    <rect width="496.79" height="40.01" x="854.11" y="1121.81" fill="#ece6e4" class="colore4e6ec svgShape"></rect>
    <rect width="496.79" height="40.01" x="854.11" y="1161.82" fill="#f7f6f6" class="colorf6f6f7 svgShape"></rect>
    <rect width="496.79" height="40.01" x="854.11" y="1201.83" fill="#ece6e4" class="colore4e6ec svgShape"></rect>
    <rect width="496.79" height="40.01" x="854.11" y="1241.84" fill="#f7f6f6" class="colorf6f6f7 svgShape"></rect>
    <rect width="496.79" height="40.01" x="854.11" y="1281.85" fill="#ece6e4" class="colore4e6ec svgShape"></rect>
    <rect width="496.79" height="40.01" x="854.11" y="1321.87" fill="#f7f6f6" class="colorf6f6f7 svgShape"></rect>
    <rect width="496.79" height="40.01" x="1454.67" y="241.58" fill="#ece6e4" class="colore4e6ec svgShape"></rect>
    <rect width="496.79" height="78.17" x="1454.67" y="83.38" fill="#f7f6f6" class="colorf6f6f7 svgShape"></rect>
    <rect width="496.79" height="40.01" x="1454.67" y="161.55" fill="#ece6e4" class="colore4e6ec svgShape"></rect>
    <rect width="496.79" height="40.01" x="1454.67" y="201.56" fill="#f7f6f6" class="colorf6f6f7 svgShape"></rect>
    <rect width="496.79" height="40.01" x="1454.67" y="281.59" fill="#f7f6f6" class="colorf6f6f7 svgShape"></rect>
    <rect width="496.79" height="40.01" x="1454.67" y="321.6" fill="#ece6e4" class="colore4e6ec svgShape"></rect>
    <rect width="496.79" height="40.01" x="1454.67" y="361.61" fill="#f7f6f6" class="colorf6f6f7 svgShape"></rect>
    <rect width="496.79" height="40.01" x="1454.67" y="401.62" fill="#ece6e4" class="colore4e6ec svgShape"></rect>
    <rect width="496.79" height="40.01" x="1454.67" y="441.63" fill="#f7f6f6" class="colorf6f6f7 svgShape"></rect>
    <rect width="496.79" height="40.01" x="1454.67" y="481.64" fill="#ece6e4" class="colore4e6ec svgShape"></rect>
    <rect width="496.79" height="40.01" x="1454.67" y="521.65" fill="#f7f6f6" class="colorf6f6f7 svgShape"></rect>
    <rect width="496.79" height="40.01" x="1454.67" y="561.66" fill="#ece6e4" class="colore4e6ec svgShape"></rect>
    <rect width="496.79" height="40.01" x="1454.67" y="601.67" fill="#f7f6f6" class="colorf6f6f7 svgShape"></rect>
    <rect width="496.79" height="40.01" x="1454.67" y="641.68" fill="#ece6e4" class="colore4e6ec svgShape"></rect>
    <rect width="496.79" height="40.01" x="1454.67" y="681.69" fill="#f7f6f6" class="colorf6f6f7 svgShape"></rect>
    <rect width="496.79" height="40.01" x="1454.67" y="721.7" fill="#ece6e4" class="colore4e6ec svgShape"></rect>
    <rect width="496.79" height="40.01" x="1454.67" y="761.71" fill="#f7f6f6" class="colorf6f6f7 svgShape"></rect>
    <rect width="496.79" height="40.01" x="1454.67" y="801.73" fill="#ece6e4" class="colore4e6ec svgShape"></rect>
    <rect width="496.79" height="40.01" x="1454.67" y="841.74" fill="#f7f6f6" class="colorf6f6f7 svgShape"></rect>
    <rect width="496.79" height="40.01" x="1454.67" y="881.75" fill="#ece6e4" class="colore4e6ec svgShape"></rect>
    <rect width="496.79" height="40.01" x="1454.67" y="921.76" fill="#f7f6f6" class="colorf6f6f7 svgShape"></rect>
    <rect width="496.79" height="40.01" x="1454.67" y="961.77" fill="#ece6e4" class="colore4e6ec svgShape"></rect>
    <rect width="496.79" height="40.01" x="1454.67" y="1001.78" fill="#f7f6f6" class="colorf6f6f7 svgShape"></rect>
    <rect width="496.79" height="40.01" x="1454.67" y="1041.79" fill="#ece6e4" class="colore4e6ec svgShape"></rect>
    <rect width="496.79" height="40.01" x="1454.67" y="1081.8" fill="#f7f6f6" class="colorf6f6f7 svgShape"></rect>
    <rect width="496.79" height="40.01" x="1454.67" y="1121.81" fill="#ece6e4" class="colore4e6ec svgShape"></rect>
    <rect width="496.79" height="40.01" x="1454.67" y="1161.82" fill="#f7f6f6" class="colorf6f6f7 svgShape"></rect>
    <rect width="496.79" height="40.01" x="1454.67" y="1201.83" fill="#ece6e4" class="colore4e6ec svgShape"></rect>
    <rect width="496.79" height="40.01" x="1454.67" y="1241.84" fill="#f7f6f6" class="colorf6f6f7 svgShape"></rect>
    <rect width="496.79" height="40.01" x="1454.67" y="1281.85" fill="#ece6e4" class="colore4e6ec svgShape"></rect>
    <rect width="496.79" height="40.01" x="1454.67" y="1321.87" fill="#f7f6f6" class="colorf6f6f7 svgShape"></rect>
    <rect width="496.79" height="40.01" x="253.56" y="241.58" fill="#ece6e4" class="colore4e6ec svgShape"></rect>
    <rect width="496.79" height="78.17" x="253.56" y="83.38" fill="#f7f6f6" class="colorf6f6f7 svgShape"></rect>
    <rect width="496.79" height="40.01" x="253.56" y="161.55" fill="#ece6e4" class="colore4e6ec svgShape"></rect>
    <rect width="496.79" height="40.01" x="253.56" y="201.56" fill="#f7f6f6" class="colorf6f6f7 svgShape"></rect>
    <rect width="496.79" height="40.01" x="253.56" y="281.59" fill="#f7f6f6" class="colorf6f6f7 svgShape"></rect>
    <rect width="496.79" height="40.01" x="253.56" y="321.6" fill="#ece6e4" class="colore4e6ec svgShape"></rect>
    <rect width="496.79" height="40.01" x="253.56" y="361.61" fill="#f7f6f6" class="colorf6f6f7 svgShape"></rect>
    <rect width="496.79" height="40.01" x="253.56" y="401.62" fill="#ece6e4" class="colore4e6ec svgShape"></rect>
    <rect width="496.79" height="40.01" x="253.56" y="441.63" fill="#f7f6f6" class="colorf6f6f7 svgShape"></rect>
    <rect width="496.79" height="40.01" x="253.56" y="481.64" fill="#ece6e4" class="colore4e6ec svgShape"></rect>
    <rect width="496.79" height="40.01" x="253.56" y="521.65" fill="#f7f6f6" class="colorf6f6f7 svgShape"></rect>
    <rect width="496.79" height="40.01" x="253.56" y="561.66" fill="#ece6e4" class="colore4e6ec svgShape"></rect>
    <rect width="496.79" height="40.01" x="253.56" y="601.67" fill="#f7f6f6" class="colorf6f6f7 svgShape"></rect>
    <rect width="496.79" height="40.01" x="253.56" y="641.68" fill="#ece6e4" class="colore4e6ec svgShape"></rect>
    <rect width="496.79" height="40.01" x="253.56" y="681.69" fill="#f7f6f6" class="colorf6f6f7 svgShape"></rect>
    <rect width="496.79" height="40.01" x="253.56" y="721.7" fill="#ece6e4" class="colore4e6ec svgShape"></rect>
    <rect width="496.79" height="40.01" x="253.56" y="761.71" fill="#f7f6f6" class="colorf6f6f7 svgShape"></rect>
    <rect width="496.79" height="40.01" x="253.56" y="801.73" fill="#ece6e4" class="colore4e6ec svgShape"></rect>
    <rect width="496.79" height="40.01" x="253.56" y="841.74" fill="#f7f6f6" class="colorf6f6f7 svgShape"></rect>
    <rect width="496.79" height="40.01" x="253.56" y="881.75" fill="#ece6e4" class="colore4e6ec svgShape"></rect>
    <rect width="496.79" height="40.01" x="253.56" y="921.76" fill="#f7f6f6" class="colorf6f6f7 svgShape"></rect>
    <rect width="496.79" height="40.01" x="253.56" y="961.77" fill="#ece6e4" class="colore4e6ec svgShape"></rect>
    <rect width="496.79" height="40.01" x="253.56" y="1001.78" fill="#f7f6f6" class="colorf6f6f7 svgShape"></rect>
    <rect width="496.79" height="40.01" x="253.56" y="1041.79" fill="#ece6e4" class="colore4e6ec svgShape"></rect>
    <rect width="496.79" height="40.01" x="253.56" y="1081.8" fill="#f7f6f6" class="colorf6f6f7 svgShape"></rect>
    <rect width="496.79" height="40.01" x="253.56" y="1121.81" fill="#ece6e4" class="colore4e6ec svgShape"></rect>
    <rect width="496.79" height="40.01" x="253.56" y="1161.82" fill="#f7f6f6" class="colorf6f6f7 svgShape"></rect>
    <rect width="496.79" height="40.01" x="253.56" y="1201.83" fill="#ece6e4" class="colore4e6ec svgShape"></rect>
    <rect width="496.79" height="40.01" x="253.56" y="1241.84" fill="#f7f6f6" class="colorf6f6f7 svgShape"></rect>
    <rect width="496.79" height="40.01" x="253.56" y="1281.85" fill="#ece6e4" class="colore4e6ec svgShape"></rect>
    <rect width="496.79" height="40.01" x="253.56" y="1321.87" fill="#f7f6f6" class="colorf6f6f7 svgShape"></rect>
  </g>
  <path fill="#f9f1ee" d="m1495.58,645.91l-4.5-10.24-6.75,10.24h-18.23l-6.1-9.33-5.02,11.66c-8.19-5.33-14.72-12.3-19.32-18.14-.05-.03-.09-.06-.14-.09-1.32,37.13-3.22,104.78,9.18,176.71.66,3.82,1.69,7.57,3.01,11.21l.62,1.71c-1.45-3.98.56-8.39,4.52-9.9l68.65-26.16,10.05-165.42c-12.63,13.71-35.98,27.74-35.98,27.74Z" class="coloreef3f9 svgShape"></path>
  <path fill="#fdd7c7" d="m1522.43,483.54c-6.06,0-10.11,5.06-12.69,10.31l-7.68-4.05c-3.05-12.51-2.43-25.85,2.95-37.55.06-.13.12-.27.18-.4,4.08-9.3-.8-20.19-10.38-23.57-24.11-8.49-49.71-6.26-66.06-3.21-11.1,2.07-20.05,10.33-22.8,21.28-13.57,53.95,9.89,108.78,42.82,108.78l.91,42.55c.09,4.26,2.33,8.19,5.93,10.48,19.33,12.27,44.5.79,56.27-6,4.09-2.36,6.5-6.81,6.29-11.52l-2.57-57.64c29.17-15.52,19.45-49.45,6.83-49.45Z" class="colorffb197 svgShape"></path>
  <path fill="#4f261c" d="m1555.22,420.98c-.84-9.96-8.32-17.96-18.13-19.87-8.48-1.65-19.81-5.83-32.36-15.75-26.69-21.1-46.24-20.48-78.52-15.21-32.28,5.28-19.55,41.28-19.55,41.28,0,0-19.09,1.71-24.52,25.92-3.98,17.72,11.39,34.24,19.91,41.83-.1-10.66,1.11-21.75,3.89-32.82,2.75-10.95,11.71-19.22,22.81-21.29,16.35-3.05,41.95-5.27,66.05,3.21,9.58,3.37,14.46,14.27,10.38,23.57-.06.13-.12.27-.18.4-5.38,11.7-6,25.04-2.95,37.55h0l7.68,4.05c2.58-5.26,6.63-10.31,12.69-10.31,7.78,0,14.44,12.88,11.6,26.4,23.79-17.2,23.17-65.53,21.2-88.96Z" class="color1c3c4f svgShape"></path>
  <path fill="#e0522e" d="m1833.8,241.58h-235.61c-16.25,0-29.54,13.29-29.54,29.54v84.46c0,16.25,13.29,29.54,29.54,29.54h13.51v57.05l50.38-57.05h171.73c16.25,0,29.54-13.29,29.54-29.54v-84.46c0-16.25-13.29-29.54-29.54-29.54Z" class="colorafe02e svgShape"></path>
  <circle cx="1628" cy="313.34" r="12.35" fill="#ffffff" class="colorffffff svgShape"></circle>
  <circle cx="1686.66" cy="313.34" r="12.35" fill="#ffffff" class="colorffffff svgShape"></circle>
  <circle cx="1803.98" cy="313.34" r="12.35" fill="#ffffff" class="colorffffff svgShape"></circle>
  <circle cx="1745.32" cy="313.34" r="12.35" fill="#ffffff" class="colorffffff svgShape"></circle>
  <path fill="#ed532c" d="m1707.82,1845.62c-.54,0-1.07.02-1.6.03-3.99-4.84-7.17-10.6-9.71-16.45h-95.91l7.39,84.08h177.77c.17-2.05.27-4.11.27-6.21,0-38.39-33-61.45-78.21-61.45Z" class="colorc46c3f svgShape"></path>
  <path fill="#ece6e4" d="m1687.88,1799.07h-89.93l2.65,30.14h95.91c-5.16-11.87-7.65-24.16-8.63-30.14Z" class="colore4e6ec svgShape"></path>
  <path fill="#ed532c" d="m1323.91,1829.21c-2.54,5.85-5.72,11.6-9.71,16.45-.53-.01-1.06-.03-1.6-.03-45.21,0-78.21,23.06-78.21,61.45,0,2.09.1,4.16.27,6.21h177.77l7.39-84.08h-95.91Z" class="colorc46c3f svgShape"></path>
  <path fill="#ece6e4" d="m1323.91,1829.21h95.91l2.65-30.14h-89.93c-.98,5.98-3.47,18.26-8.63,30.14Z" class="colore4e6ec svgShape"></path>
  <path fill="#7d584f" d="m1642.31,1110.61c-65.95,30.26-137.67,29.87-137.67,29.87l-31.86-89.38-29.17,91.25c-41.94,2.95-77.12-4.9-97.24-11.05l-23.28,667.77h107.44l49.86-618.24,106.95,618.24h112.58l-57.6-688.46Z" class="color4f667d svgShape"></path>
  <path fill="#e8a183" d="m1656.76 1037.91-105.82 40.32c-4.04 1.54-8.56-.53-10.04-4.59l-12.67-34.77-4.07 1.66c-4.4 1.75-9.38-.45-11.06-4.88-1.69-4.44.29-9.93 4.7-11.7-5.23 2.1-11.3-1.37-11.68-7.58-.22-3.57 2.03-6.84 5.35-8.18l.1-.04c-.73.29-1.47.48-2.22.56-4.79.54-8.85-3.62-8.85-8.45v-.1c0-3.55 2.16-6.74 5.45-8.06-4.6 1.85-9.8-.62-11.27-5.36l-.08-.25c-1.32-4.25.86-8.79 5-10.42l5.03-1.98-37.74-103.56 5.89 180.54 31.86 89.38s93.11.52 164.7-44.38l-12.58-58.18ZM1820.54 765.13l-150.07-135.7c-7.75-7-17.06-12.04-27.16-14.7l-88.38-23.19c1.59 1.95 2.67 4.31 3.12 6.82l18.07 99.84-24.52 13.97 22.97 10.55-14.81 46.28 70.85-27 12.03 3.83 103.57 82.89-107.92 59.52 42.21 91.87 126.59-76.23c49.88-30.04 56.63-99.71 13.44-138.76Z" class="color9d83e8 svgShape"></path>
  <path fill="#e8a183" d="m1466.89,870.55c-41.8-53.38-72.74-136.24-72.74-136.24l22.76-16.97-26.07-11.59s15.72-80.28,20.28-96.83c.51-1.84,1.39-3.58,2.54-5.21l-59.53,21.46c-17.51,6.31-31,20.54-36.37,38.36l-46.92,155.71-99.32-143.69-88.14,59.59,107.84,161.25c38.26,57.21,124.89,48.49,150.98-15.19l4.36-10.64,7.05,81.85-25.45,172.39s49.35,22.21,115.46,17.55l29.17-91.25-5.89-180.54Z" class="color9d83e8 svgShape"></path>
  <path fill="#4f261c" d="m1735.21,999.84l-15.74-43.18-38.96,23.46-42.21-91.87,46.83-25.83-42.48-116.58c-1.48-4.06-6-6.13-10.04-4.59l-179.74,68.49c-3.96,1.51-5.97,5.92-4.52,9.9l56.29,154.46-5.03,1.98c-4.14,1.63-6.32,6.17-5,10.42l.08.25c1.47,4.74,6.67,7.21,11.27,5.36-3.29,1.32-5.45,4.51-5.45,8.06v.1c0,4.82,4.05,8.99,8.85,8.45.74-.08,1.49-.27,2.22-.56l-.1.04c-3.32,1.33-5.56,4.61-5.35,8.18.38,6.21,6.45,9.68,11.68,7.58-4.4,1.77-6.38,7.26-4.7,11.7,1.68,4.43,6.66,6.63,11.06,4.88l4.07-1.66,12.67,34.77c1.48,4.06,6,6.13,10.04,4.59l179.74-68.49c3.96-1.51,5.97-5.92,4.52-9.9Z" class="color1c3c4f svgShape"></path>
  <polygon fill="#ffffff" points="1641.17 894.51 1615.56 908.63 1651.69 987.27 1676.83 972.13 1641.17 894.51" class="colorffffff svgShape"></polygon>
  <path fill="#fdd7c7" d="m1620.54,919.46l-36.83,16.86c-10.97-3.88-28.55-1.26-40.39-.22-8.75.77-16.56-.21-21.39-1.11l-2.56-.59c-3.91-.9-7.72,1.87-8.08,5.87-.45,4.94,1.44,10.32,7.06,11.77l25.64,6.55-44.39,17.49c-4.14,1.63-6.32,6.17-5,10.42l.08.25c1.47,4.74,6.67,7.21,11.27,5.36-3.29,1.32-5.45,4.51-5.45,8.06v.1c0,4.82,4.05,8.99,8.85,8.45.74-.08,1.49-.27,2.22-.56l-.1.04c-3.32,1.33-5.56,4.61-5.35,8.18.38,6.21,6.45,9.68,11.68,7.58-4.4,1.77-6.38,7.26-4.7,11.7,1.68,4.43,6.66,6.63,11.06,4.88l46.86-19.1h0c6.49-2.77,11.53-5.05,14.2-6.46,11.35-6.03,18.08-16.11,21.81-23.86l38.3-17.67-24.79-53.97Z" class="colorffb197 svgShape"></path>
  <path fill="#f5b89f" d="M1518.15 591.65c2.97.3 5.45.92 7.44 1.68 4.4 1.7 7.11 6.15 6.82 10.86l-10.9 179.39 38.26-14.58 14.81-46.28-22.97-10.55 24.52-13.97-18.07-99.84c-.69-3.8-2.77-7.24-5.93-9.47-12.67-8.94-34.45-9.58-34.46-9.58l.5 11.32c.02.34-.01.68-.02 1.02ZM1466.89 870.55l-19.17-52.61c-1.33-3.64-2.35-7.39-3.01-11.21-14.53-84.26-9.43-162.67-8.63-193.01.14-5.33 2.79-10.26 7.16-13.33l6.41-4.5-.25-11.59s-33.73 8.07-38.28 24.62c-4.55 16.55-20.28 96.83-20.28 96.83l26.07 11.59-22.76 16.97s30.94 82.85 72.74 136.24Z" class="colorc59ff5 svgShape"></path>
  <path fill="#ffffff" d="M1455.61 608.16c-3.6-2.28-5.84-6.22-5.93-10.48l-.04-1.78-6.41 4.5c-4.36 3.06-7.02 7.99-7.16 13.32-.12 4.44-.33 9.94-.55 16.3.05.03.09.06.14.09 4.6 5.84 11.13 12.81 19.32 18.14l15.08-35c-4.97-.62-9.87-2.18-14.45-5.08ZM1531.56 618.17l.85-13.98c.29-4.71-2.42-9.16-6.82-10.86-1.98-.76-4.47-1.38-7.44-1.68 0-.01 0-.02 0-.03-.14 4.34-2.47 8.34-6.27 10.54-6.9 3.98-18.42 9.57-30.65 11.04l14.36 32.71s23.34-14.03 35.98-27.74Z" class="colorffffff svgShape"></path>
  <path fill="#ff9c83" d="m1481.23,613.2c-3.69.44-7.45.51-11.17.04h0l-10.05,23.34,6.1,9.33h18.23l6.75-10.24-9.86-22.47h0Z" class="colorff8387 svgShape"></path>
  <polygon fill="#ffb494" points="1466.1 645.91 1452.86 809.75 1505.69 789.62 1484.33 645.91 1466.1 645.91" class="colorff9497 svgShape"></polygon>
  <path fill="#ffffff" d="m1033.55,664.33h0s-38.31-25.74-38.31-25.74c-3.91-2.68-4.85-8.04-2.11-11.9,2.74-3.87,8.41-5.29,12.33-2.62l-11.36-7.83c-4.66-3.17-5.16-10.15-.21-13.92,2.84-2.17,6.81-2.13,9.77-.12l-11.15-7.69c-.65-.44-1.22-.96-1.7-1.53-3.12-3.68-1.92-9.36,2.08-12.05l.08-.05c2.94-1.98,6.8-1.96,9.73.03l11.24,7.75c-4.1-2.79-4.95-8.49-1.83-12.35l.16-.2c2.79-3.46,7.78-4.19,11.44-1.66l17.61,12.16V131.75H83.34v921.83h957.96v-384.31c-2.23-1.38-4.84-3.04-7.76-4.93Z" class="colorffffff svgShape"></path>
  <path fill="#ece6e4" d="m1041.3,613.47c1.84,0,3.34-1.49,3.34-3.34V107.57c0-1.84-1.49-3.34-3.34-3.34H83.34c-1.84,0-3.34,1.49-3.34,3.34v970.19c0,1.84,1.49,3.34,3.34,3.34h957.96c1.84,0,3.34-1.49,3.34-3.34v-425.55c0-1.84-1.49-3.34-3.34-3.34s-3.34,1.49-3.34,3.34v422.21H86.68V110.9h951.28v499.23c0,1.84,1.49,3.34,3.34,3.34Z" class="colore4e6ec svgShape"></path>
  <rect width="995.64" height="48.36" x="64.5" y="1053.58" fill="#a98170" class="color7081a9 svgShape"></rect>
  <polygon fill="#7d584f" points="156.02 1101.94 85.61 1913.28 111.68 1913.28 220.92 1101.94 156.02 1101.94" class="color4f667d svgShape"></polygon>
  <polygon fill="#4f261c" points="156.01 1101.94 155.44 1108.61 220.02 1108.61 220.92 1101.94 156.01 1101.94" class="color1c3c4f svgShape"></polygon>
  <polygon fill="#7d584f" points="968.63 1101.94 1039.04 1913.28 1012.97 1913.28 903.72 1101.94 968.63 1101.94" class="color4f667d svgShape"></polygon>
  <polygon fill="#4f261c" points="968.63 1101.94 903.72 1101.94 904.62 1108.61 969.21 1108.61 968.63 1101.94" class="color1c3c4f svgShape"></polygon>
  <polygon fill="#7d584f" points="527.1 1101.94 546.75 1913.28 577.89 1913.28 597.55 1101.94 527.1 1101.94" class="color4f667d svgShape"></polygon>
  <polygon fill="#4f261c" points="597.55 1101.94 527.1 1101.94 527.27 1108.61 597.37 1108.61 597.55 1101.94" class="color1c3c4f svgShape"></polygon>
  <rect width="417.84" height="34.58" x="353.4" y="191.8" fill="#f2ae91" class="color91dff2 svgShape"></rect>
  <path fill="#f07b4a" d="m335.14,469.33c48.68,0,88.14,39.46,88.14,88.14,0,20.73-7.17,39.77-19.15,54.82l69,54.82c23.95-30.1,38.29-68.18,38.29-109.64,0-97.36-78.93-176.29-176.29-176.29s-176.29,78.93-176.29,176.29h88.14c0-48.68,39.46-88.14,88.14-88.14Z" class="color4ac0f0 svgShape"></path>
  <path fill="#ff4a1c" d="m473.13,667.11l-69-54.82c-16.15,20.3-41.04,33.33-69,33.33v88.14c55.91,0,105.7-26.06,137.99-66.65Z" class="colorffc71c svgShape"></path>
  <path fill="#ff987e" d="m335.14,645.62c-48.68,0-88.14-39.46-88.14-88.14h-88.14c0,97.36,78.93,176.29,176.29,176.29v-88.14Z" class="colorff8b7e svgShape"></path>
  <rect width="48" height="34.58" x="566.46" y="714.13" fill="#ff4a1c" class="colorffc71c svgShape"></rect>
  <rect width="48" height="34.58" x="566.46" y="833.57" fill="#ff987e" class="colorff8b7e svgShape"></rect>
  <rect width="48" height="34.58" x="566.46" y="773.85" fill="#f07b4a" class="color4ac0f0 svgShape"></rect>
  <rect width="53.33" height="82.65" x="638.04" y="583.02" fill="#ff4a1c" class="colorffc71c svgShape"></rect>
  <rect width="53.33" height="167.34" x="834.53" y="498.33" fill="#ff987e" class="colorff8b7e svgShape"></rect>
  <rect width="53.33" height="209.69" x="736.29" y="455.99" fill="#f07b4a" class="color4ac0f0 svgShape"></rect>
  <path fill="#ece6e4" d="M762.37 260.52h-400.1c-1.84 0-3.34-1.49-3.34-3.34s1.49-3.34 3.34-3.34h400.1c1.84 0 3.34 1.49 3.34 3.34s-1.49 3.34-3.34 3.34ZM980.64 973.74H144c-1.84 0-3.34-1.49-3.34-3.34s1.49-3.34 3.34-3.34h836.64c1.84 0 3.34 1.49 3.34 3.34s-1.49 3.34-3.34 3.34ZM980.64 917.2H144c-1.84 0-3.34-1.49-3.34-3.34s1.49-3.34 3.34-3.34h836.64c1.84 0 3.34 1.49 3.34 3.34s-1.49 3.34-3.34 3.34ZM980.64 945.47H144c-1.84 0-3.34-1.49-3.34-3.34s1.49-3.34 3.34-3.34h836.64c1.84 0 3.34 1.49 3.34 3.34s-1.49 3.34-3.34 3.34ZM980.64 1002.01H144c-1.84 0-3.34-1.49-3.34-3.34s1.49-3.34 3.34-3.34h836.64c1.84 0 3.34 1.49 3.34 3.34s-1.49 3.34-3.34 3.34Z" class="colore4e6ec svgShape"></path>
  <path fill="#7d584f" d="M857.37 860.55h-203.18c-1.84 0-3.34 1.49-3.34 3.34s1.49 3.34 3.34 3.34h203.18c1.84 0 3.34-1.49 3.34-3.34s-1.49-3.34-3.34-3.34ZM803.16 834.51h-148.97c-1.84 0-3.34 1.49-3.34 3.34s1.49 3.34 3.34 3.34h148.97c1.84 0 3.34-1.49 3.34-3.34s-1.49-3.34-3.34-3.34ZM857.37 800.83h-203.18c-1.84 0-3.34 1.49-3.34 3.34s1.49 3.34 3.34 3.34h203.18c1.84 0 3.34-1.49 3.34-3.34s-1.49-3.34-3.34-3.34ZM803.16 774.78h-148.97c-1.84 0-3.34 1.49-3.34 3.34s1.49 3.34 3.34 3.34h148.97c1.84 0 3.34-1.49 3.34-3.34s-1.49-3.34-3.34-3.34ZM857.37 741.11h-203.18c-1.84 0-3.34 1.49-3.34 3.34s1.49 3.34 3.34 3.34h203.18c1.84 0 3.34-1.49 3.34-3.34s-1.49-3.34-3.34-3.34ZM803.16 715.06h-148.97c-1.84 0-3.34 1.49-3.34 3.34s1.49 3.34 3.34 3.34h148.97c1.84 0 3.34-1.49 3.34-3.34s-1.49-3.34-3.34-3.34ZM510.38 761.62h-74.49c-1.84 0-3.34-1.49-3.34-3.34s1.49-3.34 3.34-3.34h74.49c1.84 0 3.34 1.49 3.34 3.34s-1.49 3.34-3.34 3.34Z" class="color4f667d svgShape"></path>
  <path fill="#ece6e4" d="m490.5,787.66h-54.61c-1.84,0-3.34-1.49-3.34-3.34s1.49-3.34,3.34-3.34h54.61c1.84,0,3.34,1.49,3.34,3.34s-1.49,3.34-3.34,3.34Z" class="colore4e6ec svgShape"></path>
  <path fill="#7d584f" d="m274.5,761.62h-74.49c-1.84,0-3.34-1.49-3.34-3.34s1.49-3.34,3.34-3.34h74.49c1.84,0,3.34,1.49,3.34,3.34s-1.49,3.34-3.34,3.34Z" class="color4f667d svgShape"></path>
  <path fill="#ece6e4" d="m254.63,787.66h-54.61c-1.84,0-3.34-1.49-3.34-3.34s1.49-3.34,3.34-3.34h54.61c1.84,0,3.34,1.49,3.34,3.34s-1.49,3.34-3.34,3.34Z" class="colore4e6ec svgShape"></path>
  <path fill="#7d584f" d="m274.5,320.62h-74.49c-1.84,0-3.34-1.49-3.34-3.34s1.49-3.34,3.34-3.34h74.49c1.84,0,3.34,1.49,3.34,3.34s-1.49,3.34-3.34,3.34Z" class="color4f667d svgShape"></path>
  <path fill="#ece6e4" d="M254.63 346.66h-54.61c-1.84 0-3.34-1.49-3.34-3.34s1.49-3.34 3.34-3.34h54.61c1.84 0 3.34 1.49 3.34 3.34s-1.49 3.34-3.34 3.34ZM490.5 812.86h-54.61c-1.84 0-3.34-1.49-3.34-3.34s1.49-3.34 3.34-3.34h54.61c1.84 0 3.34 1.49 3.34 3.34s-1.49 3.34-3.34 3.34ZM254.63 812.86h-54.61c-1.84 0-3.34-1.49-3.34-3.34s1.49-3.34 3.34-3.34h54.61c1.84 0 3.34 1.49 3.34 3.34s-1.49 3.34-3.34 3.34ZM254.63 371.86h-54.61c-1.84 0-3.34-1.49-3.34-3.34s1.49-3.34 3.34-3.34h54.61c1.84 0 3.34 1.49 3.34 3.34s-1.49 3.34-3.34 3.34Z" class="colore4e6ec svgShape"></path>
  <path fill="#7d584f" d="M566.46 374.63h-12.21c-1.84 0-3.34-1.49-3.34-3.34s1.49-3.34 3.34-3.34h12.21c1.84 0 3.34 1.49 3.34 3.34s-1.49 3.34-3.34 3.34ZM566.46 416.98h-12.21c-1.84 0-3.34-1.49-3.34-3.34s1.49-3.34 3.34-3.34h12.21c1.84 0 3.34 1.49 3.34 3.34s-1.49 3.34-3.34 3.34ZM566.46 459.32h-12.21c-1.84 0-3.34-1.49-3.34-3.34s1.49-3.34 3.34-3.34h12.21c1.84 0 3.34 1.49 3.34 3.34s-1.49 3.34-3.34 3.34ZM566.46 501.67h-12.21c-1.84 0-3.34-1.49-3.34-3.34s1.49-3.34 3.34-3.34h12.21c1.84 0 3.34 1.49 3.34 3.34s-1.49 3.34-3.34 3.34ZM566.46 544.01h-12.21c-1.84 0-3.34-1.49-3.34-3.34s1.49-3.34 3.34-3.34h12.21c1.84 0 3.34 1.49 3.34 3.34s-1.49 3.34-3.34 3.34ZM566.46 586.36h-12.21c-1.84 0-3.34-1.49-3.34-3.34s1.49-3.34 3.34-3.34h12.21c1.84 0 3.34 1.49 3.34 3.34s-1.49 3.34-3.34 3.34ZM664.71 681.22c-1.84 0-3.34-1.49-3.34-3.34v-12.21c0-1.84 1.49-3.34 3.34-3.34s3.34 1.49 3.34 3.34v12.21c0 1.84-1.49 3.34-3.34 3.34ZM762.95 681.22c-1.84 0-3.34-1.49-3.34-3.34v-12.21c0-1.84 1.49-3.34 3.34-3.34s3.34 1.49 3.34 3.34v12.21c0 1.84-1.49 3.34-3.34 3.34ZM861.2 681.22c-1.84 0-3.34-1.49-3.34-3.34v-12.21c0-1.84 1.49-3.34 3.34-3.34s3.34 1.49 3.34 3.34v12.21c0 1.84-1.49 3.34-3.34 3.34ZM566.46 628.7h-12.21c-1.84 0-3.34-1.49-3.34-3.34s1.49-3.34 3.34-3.34h12.21c1.84 0 3.34 1.49 3.34 3.34s-1.49 3.34-3.34 3.34Z" class="color4f667d svgShape"></path>
  <path fill="#ffb494" d="m858.15,416.1c-.44,0-.89-.09-1.32-.27l-88.5-38.15c-1.69-.73-2.47-2.69-1.74-4.38.73-1.69,2.69-2.47,4.38-1.74l88.5,38.15c1.69.73,2.47,2.69,1.74,4.38-.54,1.26-1.77,2.02-3.07,2.02Z" class="colorff9497 svgShape"></path>
  <path fill="#f2ae91" d="m668.72,496.91c-.71,0-1.43-.23-2.04-.7-1.46-1.13-1.73-3.22-.6-4.68l89.18-115.31c1.13-1.46,3.23-1.72,4.68-.6,1.46,1.13,1.73,3.22.6,4.68l-89.18,115.31c-.66.85-1.64,1.3-2.64,1.3Z" class="color91dff2 svgShape"></path>
  <path fill="#ef7556" d="m1501.61,535.6c.89-1.61.31-3.64-1.3-4.54-1.62-.89-3.64-.31-4.54,1.3-.12.22-12.53,21.82-47,22.77l.14,6.72c38.25-1.01,52.11-25.21,52.69-26.26Z" class="coloref7756 svgShape"></path>
  <path fill="#a3513c" d="M1634.44 671.01c-.47 0-.95-.1-1.41-.31-1.67-.78-2.39-2.77-1.61-4.43l13.76-29.47c.78-1.67 2.77-2.39 4.43-1.61 1.67.78 2.39 2.77 1.61 4.43l-13.76 29.47c-.57 1.21-1.77 1.93-3.03 1.93ZM1762.37 812.13l-21.85 12.05 5.7 4.56 19.37-10.76c1.61-.89 2.2-2.92 1.31-4.53-.89-1.61-2.92-2.2-4.53-1.31ZM1346.54 870.55l-4.46-51.41c-1.83-21.25-2.76-42.84-2.76-64.17v-22.28c0-1.84-1.49-3.34-3.34-3.34s-3.34 1.49-3.34 3.34v22.28c0 21.52.94 43.31 2.78 64.75l5.53 64.2c.41-.91.84-1.78 1.22-2.71l4.36-10.64ZM1286.63 841.94c.65.94 1.69 1.44 2.75 1.44.65 0 1.32-.19 1.89-.59 1.52-1.05 1.9-3.13.85-4.64l-18.79-27.19-2.5 8.28 15.8 22.7Z" class="color4a3ca3 svgShape"></path>
  <path fill="#4f261c" d="m1485.56,1185.45c-.27,0-.54-.03-.81-.1l-33.48-8.32c-1.79-.44-2.88-2.25-2.43-4.04.44-1.79,2.25-2.88,4.04-2.43l33.48,8.32c1.79.44,2.88,2.25,2.43,4.04-.38,1.52-1.74,2.53-3.24,2.53Z" class="color1c3c4f svgShape"></path>
  <path fill="#ef7556" d="M1505.95 995.45c-1.32 0-2.57-.79-3.1-2.09-.69-1.71.14-3.65 1.85-4.34l31.59-12.69c1.71-.69 3.65.14 4.34 1.85.69 1.71-.14 3.65-1.85 4.34l-31.59 12.69c-.41.16-.83.24-1.24.24ZM1511.46 1011.54c-1.32 0-2.57-.79-3.1-2.09-.69-1.71.14-3.65 1.85-4.34l32.53-13.07c1.71-.69 3.65.14 4.34 1.85.69 1.71-.14 3.65-1.85 4.34l-32.53 13.07c-.41.16-.83.24-1.24.24ZM1517.79 1027.3c-1.32 0-2.57-.79-3.1-2.09-.69-1.71.14-3.65 1.85-4.34l32.56-13.08c1.71-.69 3.65.14 4.34 1.85.69 1.71-.14 3.65-1.85 4.34l-32.56 13.08c-.41.16-.83.24-1.24.24ZM1543.98 958.61l12.89-5.2c1.71-.68 2.55-2.62 1.87-4.33-.68-1.71-2.62-2.56-4.33-1.87l-21.57 8.56 11.13 2.84Z" class="coloref7756 svgShape"></path>
  <path fill="#da8866" d="m1466.87,870.52l2.72,185.62c.03,1.83,1.52,3.29,3.34,3.29h.05c1.84-.03,3.31-1.54,3.29-3.39l-2.44-166.43-6.95-19.08Z" class="color7566da svgShape"></path>
  <circle cx="664.71" cy="498.77" r="11.95" fill="#ff4a1c" class="colorffc71c svgShape"></circle>
  <circle cx="762.95" cy="371.73" r="11.95" fill="#f07b4a" class="color4ac0f0 svgShape"></circle>
  <circle cx="861.2" cy="414.08" r="11.95" fill="#ff987e" class="colorff8b7e svgShape"></circle>
  <path fill="#4f261c" d="m1996.66,1916.62H3.34c-1.84,0-3.34-1.49-3.34-3.34s1.49-3.34,3.34-3.34h1993.33c1.84,0,3.34,1.49,3.34,3.34s-1.49,3.34-3.34,3.34Z" class="color1c3c4f svgShape"></path>
  <path fill="#382925" d="m566.46,669.01c-1.84,0-3.34-1.49-3.34-3.34v-333.95c0-1.84,1.49-3.34,3.34-3.34s3.34,1.49,3.34,3.34v333.95c0,1.84-1.49,3.34-3.34,3.34Z" class="color382c25 svgShape"></path>
  <path fill="#382925" d="m946.84,669.01h-380.38c-1.84,0-3.34-1.49-3.34-3.34s1.49-3.34,3.34-3.34h380.38c1.84,0,3.34,1.49,3.34,3.34s-1.49,3.34-3.34,3.34Z" class="color382c25 svgShape"></path>
  <polygon fill="#4f261c" points="180.31 1403.56 944.33 1403.56 943.44 1396.88 181.21 1396.88 180.31 1403.56" class="color1c3c4f svgShape"></polygon>
  <rect width="995.64" height="48.36" x="64.5" y="83.38" fill="#a98170" class="color7081a9 svgShape"></rect>
  <polygon fill="#ece6e4" points="1164.91 680.02 1148.79 656.7 1075.9 705.98 1091.66 729.54 1164.91 680.02" class="colore4e6ec svgShape"></polygon>
  <path fill="#fdd7c7" d="m1137.81,664.13l-26.52-36.68c-2.89-11.27-14.87-24.41-22.32-33.66-5.51-6.84-9.06-13.87-11-18.38l-.94-2.46c-1.44-3.75-5.85-5.37-9.38-3.44-4.35,2.38-7.77,6.95-5.84,12.42l8.85,24.95-46.96-32.43c-3.66-2.53-8.65-1.8-11.44,1.66l-.16.2c-3.11,3.86-2.27,9.56,1.83,12.35l-11.24-7.75c-2.93-2-6.78-2.01-9.73-.03l-.08.05c-4,2.69-5.2,8.37-2.08,12.05.48.57,1.05,1.09,1.7,1.53l11.15,7.69c-2.96-2.01-6.93-2.05-9.77.12-4.95,3.78-4.44,10.75.21,13.92l11.36,7.83c-3.92-2.67-9.59-1.25-12.33,2.62-2.74,3.87-1.79,9.22,2.11,11.9l38.31,25.74h0c5.92,3.84,10.61,6.76,13.28,8.19,9.02,4.83,18.53,5.79,26.33,5.37l14.58,20.09,50.07-33.85Z" class="colorffb197 svgShape"></path>
  <path fill="#ef7556" d="M1049.65 616.62c-.65 0-1.31-.19-1.89-.59l-35.73-24.63c-1.52-1.04-1.9-3.12-.85-4.64 1.04-1.52 3.12-1.9 4.64-.85l35.73 24.63c1.52 1.04 1.9 3.12.85 4.64-.65.94-1.69 1.44-2.75 1.44ZM1040.2 630.73c-.65 0-1.31-.19-1.89-.59l-36.56-25.2c-1.52-1.04-1.9-3.12-.85-4.64 1.04-1.52 3.12-1.9 4.64-.85l36.56 25.2c1.52 1.04 1.9 3.12.85 4.64-.65.94-1.69 1.44-2.75 1.44ZM1030.67 644.79c-.65 0-1.31-.19-1.89-.59l-25.23-17.39c-1.52-1.04-1.9-3.12-.85-4.64 1.04-1.52 3.12-1.9 4.64-.85l25.23 17.39c1.52 1.04 1.9 3.12.85 4.64-.65.94-1.69 1.44-2.75 1.44ZM1087.31 643.73c-.34 0-.69-.05-1.03-.16-11.58-3.75-18.49-13.17-19.45-26.53-.13-1.84 1.25-3.44 3.09-3.57 1.86-.12 3.44 1.25 3.57 3.09.77 10.76 5.77 17.71 14.85 20.65 1.75.57 2.71 2.45 2.15 4.2-.46 1.41-1.77 2.31-3.17 2.31ZM1077.53 683.91c4.78-1.09 11.06-3.15 16.93-7.1 1.53-1.03 1.93-3.1.9-4.63-1.03-1.53-3.1-1.93-4.63-.9-6.29 4.23-13.36 5.91-17.57 6.62l4.37 6.02Z" class="coloref7756 svgShape"></path>
  <ellipse cx="1458.34" cy="481" fill="#4f261c" rx="7.65" ry="8.78" class="color1c3c4f svgShape"></ellipse>
  <ellipse cx="1417.35" cy="482.28" fill="#4f261c" rx="7.65" ry="8.78" class="color1c3c4f svgShape"></ellipse>
  <path fill="#ef7556" d="M1438 527.53c-4.39 0-7.18-.75-7.44-.82-1.84-.51-2.91-2.41-2.4-4.25.51-1.83 2.39-2.91 4.23-2.4h0c.5.13 12.23 3.13 25.85-5.77 1.6-1.05 3.73-.6 4.78 1 1.04 1.6.59 3.73-1 4.77-9.37 6.12-18.14 7.47-24.02 7.47ZM1428.01 510.38c-.92 0-1.84-.37-2.52-1.09-1.3-1.39-1.23-3.57.16-4.88 6.73-6.31 6.81-17.62 6.81-17.73 0-1.91 1.54-3.45 3.45-3.45s3.45 1.54 3.45 3.45c0 .59-.1 14.43-8.99 22.77-.67.62-1.51.93-2.36.93Z" class="coloref7756 svgShape"></path>
</svg>
