<svg xmlns="http://www.w3.org/2000/svg" xml:space="preserve" id="graduating" x="0" y="0" version="1.1" viewBox="0 0 1920 1080" enable-background="new 0 0 1920 1080">
  <path d="M1370.5 1080H790.7c-11.4 0-20.6-9.2-20.6-20.6V314.6c0-171.5 139-310.5 310.5-310.5s310.5 139 310.5 310.5v744.8c.1 11.4-9.2 20.6-20.6 20.6z" opacity=".1" fill="#f4662a" class="color2a94f4 svgShape"></path>
  <path d="M1096.1 114.8h88.7v7h-88.7z" transform="rotate(47.925 1140.414 118.333)" fill="#ed532c" class="colorffbe55 svgShape"></path>
  <path d="M1104.5 115.7h54.9v20.4h-54.9z" transform="rotate(47.925 1131.994 125.934)" fill="#ed532c" class="colorffbe55 svgShape"></path>
  <path d="M970 97.7s-58.7 43.1-51.7 40.9c0 0 67.8 14.4 70-9.8S977.7 92 970 97.7z" fill="#ed532c" class="colorffbe55 svgShape"></path>
  <path d="M970 97.7s-58.7 43.1-51.7 40.9c0 0 67.8 14.4 70-9.8S977.7 92 970 97.7z" opacity=".19" fill="#020202" class="color020202 svgShape"></path>
  <path d="M1284.5 155.4s32.1 90.4 21.8 132.6L1164 262.6c-.1-.1 86.2-114.3 120.5-107.2z" fill="#ed532c" class="colorffbe55 svgShape"></path>
  <path d="M1284.5 155.4s32.1 90.4 21.8 132.6L1164 262.6c-.1-.1 86.2-114.3 120.5-107.2z" opacity=".13" fill="#000000" class="color000000 svgShape"></path>
  <path d="M832.2 816.1h474V1080h-474z" fill="#d3d3d3" class="colord3d3d3 svgShape"></path>
  <ellipse cx="1069.2" cy="816.1" rx="237" ry="61" fill="#ffffff" class="colorf7f7f7 svgShape"></ellipse>
  <path d="M1266.1 816.4c0-16.1-85.1-29.2-190.1-29.2s-190.1 13.1-190.1 29.2 85.1 29.2 190.1 29.2h4.6c0 6.1 32.4 11.1 72.4 11.1 40 0 72.4-5 72.4-11.1 0-3-7.8-5.8-20.5-7.8 37.7-5.3 61.2-13 61.2-21.4z" fill="#f2f2f2" class="colorf2f2f2 svgShape"></path>
  <path d="m971.3 144.5-19.1-92.3s13.2-2.6 17.8 9.2c10.1 25.9 26 57.6 25.9 76.9-.2 30.2-24.6 6.2-24.6 6.2zM1244.3 176.7 1303 127l18.1 4.4s-41.3 60.3-60.2 70.8c-19 10.5-16.6-25.5-16.6-25.5z" fill="#fcc7b1" class="colorfcd2b1 svgShape"></path>
  <path d="M1306.3 141.5s-5.2-15.2-2.7-19c2.5-3.8 12.7-17.3 12.7-17.3l2.9-3.2s5.4 1.2-1.5 10.1c-6.9 9-1.1 6.4-1.1 6.4l9.5-5.8 12.2-6.2 5-3.4s12.4 2.9 10.8 9.2c-2.1 8.9-18.7 22.3-18.7 22.3l-26.3 10.5-2.8-3.6zM961.5 66.9s10.2-12.4 9.2-16.9c-1-4.5-5.8-20.6-5.8-20.6l-1.6-4s-5.5-.7-2.1 10c3.4 10.8-1.2 6.4-1.2 6.4l-6.8-8.7s.4-4-.9-3.6c-8.4 2.8-10.7 9.1-11 14.2l-.2 3.6c-.1 1.7.4 3.4 1.6 4.6l15.1 17.4 3.7-2.4z" fill="#fcc7b1" class="colorfcd2b1 svgShape"></path>
  <path d="m1070.5 204.8-58.1-42.8-8-17.5 4.8-.8-10.2-16.4-35.7 9.7 5.4 29.3 5.3-.4 5.5 16.5 7.9 2.4 48 74.6z" fill="#debeb0" class="colorb0bfde svgShape"></path>
  <path d="m1136.5 785.6-1.2 18.8 1.1 15.9 5.7 5.1 4.5 2.1 1 2.8 14.8 13.2c4.1 2.6 10.2 4.5 18.1 3.8 2.7-.2.1-7.7-.6-8.9-4.3-6.8-11.2-14.5-11.2-14.5l-10.4-17.4-11.5-21.6-10.3.7zM1010 768.5l3 8 .9 8.7-2.3 13.3h-7.5l-5.3-2-4 2s-21.3 1-29.1.1c-13-1.5-19.8-3.8-22-6.7-1.2-1.6 5.2-3.4 7.2-3.4 11.7 0 24.8-5.5 24.8-5.5l11-9.1 2.9-7.2 20.4 1.8z" fill="#701f0b" class="color0b4870 svgShape"></path>
  <path d="m1154.4 213.8-94.3-17.7s-80 37.2-71 197.3c0 .8 117.3 32.6 117.1 2-.7-76.4 48.2-181.6 48.2-181.6z" fill="#f2f2f2" class="colorf2f2f2 svgShape"></path>
  <path d="m1101.7 397.2 62.2 409.5-30.4-2.9-38-138.9-8.1-41.4L1042 459l-5.3-69z" fill="#8c270e" class="color0e538c svgShape"></path>
  <path d="m1015.4 770.7-7.2-143.3 19.4-76.2 25.4-104.9-7.6-55.5-55.9-5.5-6.6 41-17.7 170-3.9 41.3 17.6 136.9z" fill="#8c270e" class="color0e538c svgShape"></path>
  <path d="M1094.1 179.2c-4.7 20.8-14.3 31.9-13.9 33.4l3.6-2 22.5 3.2 1.5-4.3c0-.8 3.7 2.5 4 1.1 2.1-8.6 9.3-26.6 11.2-29.4 2.3-3.3-26.1-14.3-28.9-2z" fill="#fdd7c7" class="colorffe3ca svgShape"></path>
  <path d="m1098.4 123.6-18.4 33.2c-7 12.6-2.2 22.5 8.1 32.6 2.3 2.3 22.1 7.6 29.3-2.6 7.1-10.2 20.3-36.6 20.3-36.6s1-10.5-18-14.1c-19.1-3.6-21.3-12.5-21.3-12.5z" fill="#fdd7c7" class="colorffe3ca svgShape"></path>
  <path d="M1106.9 112.4c-2.6-.6-7.3-.9-10.2 2.4-3.1 3.4-6.6 15.8-3.6 18.5 2.9 2.6 28.8 9.8 32 10.3 3.2.5 8.9 2.2 13.5-.7 3-1.8-2.1-12.1-7.8-13.3-14.6-3.1-14.3-15-23.9-17.2z" fill="#701f0b" class="color0b4870 svgShape"></path>
  <path d="M1132.8 140.1s-.8.7-2.1 1.8c-8.5 7.5-13.5 18.2-13.6 29.6-.6 1.6.1 3.4 1.6 4.2l2.4 1.3c1.4.7 3.1.4 4.1-.7 5.5-6.1 21.6-24.9 17-31-5.4-7.5-8.1-6.7-9.4-5.2z" fill="#701f0b" class="color0b4870 svgShape"></path>
  <path d="M1117.8 177.9c-1 1.9-.3 4.2 1.6 5.3l2 1.1c1.9 1 4.3.3 5.4-1.5l4.4-8c1.1-1.9.3-4.2-1.6-5.3l-2-1.1c-1.9-1-4.3-.3-5.4 1.5l-4.4 8z" fill="#fdd7c7" class="colorffe3ca svgShape"></path>
  <path d="M1086.2 211.5s-63.9 66.5-79.7 155.4c-1.2 7 4.3 13.8 4.3 13.8l12.7-7s29.8-97.2 62.7-162.2z" fill="#701f0b" class="color0b4870 svgShape"></path>
  <path d="m1086.9 211.1-2 13.2 30.1-13.7-.8-3.6zM1082.7 202.7l-8.4 13.5 12.4-5.4z" fill="#d3d3d3" class="colord3d3d3 svgShape"></path>
  <path d="M1127.2 205.8s92.4-15.6 145.8-53.1c0 0-9.6 118.2 33.2 135.2 0 0-143.3-8-165.9-21.7 0 0 19.6 327 33.2 373.8 0 0-93 5.7-120.6 0-27.6-5.7-95.9-6-105.6-41.7 0 0 23.1-250 40.9-321.8 0 0-68.8-114.2-70-138 0 0 64.2-15.7 65.4-44.8 0 0 26.7 58.5 83.6 103.7 0 0-6.2 4.2-8 34.3-.6 9.6 10.2 15.5 18 9.9l50-35.8z" fill="#ed532c" class="colorffbe55 svgShape"></path>
  <path d="m934.3 89.8-.9-.4c-3.3-1.4-4.9-5.3-3.4-8.7l33.4-76.9c1.4-3.3 5.3-4.9 8.7-3.4l.9.4c3.3 1.4 4.9 5.3 3.4 8.7L943 86.4c-1.5 3.3-5.4 4.8-8.7 3.4z" fill="#ffffff" class="colorf7f7f7 svgShape"></path>
  <ellipse cx="970.4" cy="5.2" rx="2.1" ry="5.1" transform="rotate(-64.519 970.492 5.207)" fill="#d3d3d3" class="colord3d3d3 svgShape"></ellipse>
  <path d="M961.5 66.9s10.2-12.4 9.2-16.9c-1-4.5-5.8-20.6-5.8-20.6l-1.6-4s-5.5-.7-2.1 10c3.4 10.8-.6 11.1-.6 11.1l-3 22.9 3.9-2.5z" fill="#fcc7b1" class="colorfcd2b1 svgShape"></path>
  <path d="M952.2 29.6s8.5 3.2 6.1 9.7c-2.4 6.5-13 13.8-15.8 12.7s5.1-17.6 9.7-22.4z" fill="#fcc7b1" class="colorfcd2b1 svgShape"></path>
</svg>
