<svg xmlns="http://www.w3.org/2000/svg" fill="none" viewBox="0 0 1500 1500" id="Manwithlaptop">
  <rect width="1500" height="1500" fill="#ffffff" class="colorffffff svgShape"></rect>
  <path fill="#ff8b5a" d="M587.026 609.709C585.069 595.352 591.6 581.159 603.778 573.306V573.306C625.939 559.016 655.528 571.593 660.618 597.466L693.771 765.99C697.855 786.752 685.994 807.345 665.985 814.23V814.23C640.729 822.92 613.83 806.355 610.222 779.89L587.026 609.709Z" class="color5abcff svgShape"></path>
  <path fill="#ff8b5a" d="M804.816 720.342L805.34 805.341L681.843 806.102C658.371 806.246 639.226 787.336 639.081 763.864V763.864C638.937 740.393 657.847 721.248 681.319 721.103L804.816 720.342Z" class="color5abcff svgShape"></path>
  <path stroke="#080302" stroke-linecap="round" stroke-width="3" d="M692.992 721.292L803.818 721.44" class="colorStroke080202 svgStroke"></path>
  <path fill="#ffb99c" d="M726.357 937.751L711.822 903.82L705.341 943.244L719.296 972.939C720.3 975.078 722.439 976.454 724.802 976.483C728.563 976.529 731.489 973.225 730.988 969.496L727.076 940.358C726.956 939.461 726.714 938.584 726.357 937.751Z" class="colorffbe9c svgShape"></path>
  <path fill="#ff8b5a" d="M724.316 910L640.911 913.284L628.782 804.16C625.725 776.664 653.889 756.383 678.998 768V768L724.316 910Z" class="color5abcff svgShape"></path>
  <path stroke="#080302" stroke-linecap="round" stroke-width="3" d="M674.371 964.051 671.476 1022.23M693.047 963.793 688.319 1023.04M696.046 924.758C687.441 936.524 698.99 948.477 706.655 951.214" class="colorStroke080202 svgStroke"></path>
  <path fill="#ff8b5a" d="M654.32 823.5L660.82 716L474.82 677L467.82 718.614L481.406 823.5H654.32Z" class="color5abcff svgShape"></path>
  <path fill="#fdd7c7" d="M567.657 963.235C525.543 964.706 489.508 933.256 485.27 891.33L478.162 821.017L718.876 836.116C748.636 837.983 772.688 861.082 775.757 890.741V890.741C779.395 925.894 752.505 956.777 717.187 958.011L567.657 963.235Z" class="colorf8e4c6 svgShape"></path>
  <path fill="#fdd7c7" d="M664.379 893.802C667.044 861.088 696.254 837.071 728.866 840.779V840.779V840.779C764.866 845.871 789.807 879.34 784.394 915.293L752.773 1125.33L644.499 1137.88L664.379 893.802Z" class="colorf8e4c6 svgShape"></path>
  <path fill="#fdd7c7" d="M753.559 893.802C756.223 861.088 785.433 837.071 818.046 840.779V840.779V840.779C854.045 845.871 878.987 879.34 873.574 915.293L841.953 1125.33L733.678 1137.88L753.559 893.802Z" class="colorf8e4c6 svgShape"></path>
  <path fill="#2b1009" d="M749.719 1117.02H645V1192.02H802.719C802.719 1174.22 795.093 1157.26 781.77 1145.45L749.719 1117.02Z" class="color2b0913 svgShape"></path>
  <path fill="#2b1009" d="M838.898 1117.02H734.18V1192.02H891.898C891.898 1174.22 884.273 1157.26 870.949 1145.45L838.898 1117.02Z" class="color2b0913 svgShape"></path>
  <path fill="#ff8b5a" d="M650.304 721H478.152C472.502 721 467.973 716.321 468.158 710.673L472.552 576.217C472.708 571.442 476.219 567.445 480.934 566.675L527.116 559.131C527.649 559.044 528.188 559 528.728 559H606.826C628.971 559 649.304 571.237 659.672 590.806C660.087 591.59 660.304 592.464 660.304 593.351V711C660.304 716.523 655.827 721 650.304 721Z" class="color5abcff svgShape"></path>
  <path fill="#9c2405" d="M479 743L434 738V953C434 975.091 451.909 993 474 993H495L479 743Z" class="color9c050d svgShape"></path>
  <path fill="#ffb99c" d="M623.32 539.5H610.32V560.5L570.82 587L532.32 560.5L531.82 455C531.82 427.386 554.206 405 581.82 405H603.32C630.935 405 653.32 427.386 653.32 455V509.5C653.32 526.069 639.889 539.5 623.32 539.5Z" class="colorffbe9c svgShape"></path>
  <path fill="#2b1009" d="M532.141 522.754C552.952 526.283 592.194 514.331 604.424 466.306C613.124 470.785 629.633 473.552 626.069 448.791C631.146 459.668 644.172 464.013 653.32 465.295V455C653.32 427.386 630.935 405 603.32 405H581.82C554.206 405 531.82 427.386 531.82 455L532.141 522.754Z" class="color2b0913 svgShape"></path>
  <path fill="#ff8a59" d="M531.82 558.5L579.32 584L610.82 558.5V586V586C586.937 602.42 554.936 601.485 531.82 584V584V558.5Z" class="color59bbff svgShape"></path>
  <path fill="#ffb99c" d="M554.152 500.293C549.318 493.131 550.116 483.572 556.069 477.31V477.31C563.075 469.943 574.726 469.65 582.093 476.656L597.114 490.94L569.816 523.5L554.152 500.293Z" class="colorffbe9c svgShape"></path>
  <path fill="#ed532c" d="M647.72 1094.21L647.972 1091.11L757.175 1091.09L756.775 1094.21L647.72 1094.21Z" class="colore9a360 svgShape"></path>
  <path fill="#ed532c" d="M736.899 1094.21L737.151 1091.11L846.355 1091.09L845.954 1094.21L736.899 1094.21Z" class="colore9a360 svgShape"></path>
  <path fill="#ff8b5a" d="M445.082 607.017C446.095 587.18 460.838 570.752 480.45 567.607V567.607C506.656 563.406 530.162 584.215 529.169 610.737L523.163 771.086C522.383 791.895 506.861 809.183 486.255 812.19V812.19C459.322 816.121 435.516 794.452 436.903 767.269L445.082 607.017Z" class="color5abcff svgShape"></path>
  <path stroke="#080302" stroke-linecap="round" stroke-width="3" d="M568.82 490L578.32 501" class="colorStroke080202 svgStroke"></path>
  <path fill="#080302" d="M598.64 531.244C597.946 530.791 597.016 530.987 596.564 531.681C596.111 532.374 596.307 533.304 597.001 533.756L598.64 531.244ZM608.501 541.256L609.757 542.076L611.396 539.563L610.14 538.744L608.501 541.256ZM597.001 533.756L608.501 541.256L610.14 538.744L598.64 531.244L597.001 533.756Z" class="color080202 svgShape"></path>
  <path stroke="#080302" stroke-linecap="round" stroke-width="3" d="M522.818 738L515.318 643.5" class="colorStroke080202 svgStroke"></path>
  <path stroke="#080302" stroke-width="4" d="M644.001 1137.78L752.275 1125.23L783.896 915.192C789.309 879.239 764.368 845.77 728.368 840.678V840.678" class="colorStroke080202 svgStroke"></path>
  <path stroke="#080302" stroke-linecap="round" stroke-width="3" d="M643.545 732.5L636.045 638" class="colorStroke080202 svgStroke"></path>
  <path stroke="#080302" stroke-linecap="round" stroke-width="5" d="M729.258 835.68L545.528 823.193" class="colorStroke080202 svgStroke"></path>
  <path fill="#ffffff" d="M799.069 1171.02H644V1192.02H802.718C802.718 1184.79 801.459 1177.69 799.069 1171.02Z" class="colorffffff svgShape"></path>
  <path fill="#ffffff" d="M888.249 1171.02H733.18V1192.02H891.898C891.898 1184.79 890.638 1177.69 888.249 1171.02Z" class="colorffffff svgShape"></path>
  <circle cx="640.32" cy="481.5" r="3.5" fill="#2b1009" class="color2b0913 svgShape"></circle>
  <path stroke="#080302" stroke-linecap="round" stroke-width="3" d="M629.82 505.5C630.82 509.5 634.82 512.5 638.32 511.5" class="colorStroke080202 svgStroke"></path>
  <path fill="#ffb99c" d="M662.301 496.129L650.82 486.5V505L661.376 501.254C663.563 500.478 664.079 497.62 662.301 496.129Z" class="colorffbe9c svgShape"></path>
  <path fill="#080302" d="M487 811H655.134L658 829H487V811Z" class="color080202 svgShape"></path>
  <rect width="7" height="21" x="523.82" y="811" fill="#fdd7c7" class="colorf8e4c6 svgShape"></rect>
  <rect width="7" height="21" x="486.82" y="811" fill="#fdd7c7" class="colorf8e4c6 svgShape"></rect>
  <rect width="7" height="21" x="574.82" y="811" fill="#fdd7c7" class="colorf8e4c6 svgShape"></rect>
  <rect width="7" height="21" x="631.82" y="811" fill="#f0c0ac" class="colorf0cdac svgShape"></rect>
  <path fill="#c2c2c2" d="M484 961H516L496 1192H464L484 961ZM646 961H614L634 1192H666L646 961Z" class="colorc2c2c2 svgShape"></path>
  <path fill="#ffb99c" d="M653.995 736H610.67C608.594 736 606.863 737.588 606.685 739.656L602.374 789.656C602.173 791.992 604.015 794 606.36 794H669.049C680.021 794 690.338 788.78 696.838 779.941C697.975 778.394 700.223 778.223 701.581 779.581L714.828 792.828C715.579 793.579 716.596 794 717.657 794H772.1C775.377 794 777.264 790.274 775.324 787.632L737.846 736.599C734.704 732.321 730.233 729.205 725.131 727.739L698.874 720.194C692.863 718.467 686.416 719.154 680.904 722.109L655.886 735.525C655.304 735.837 654.655 736 653.995 736Z" class="colorffbe9c svgShape"></path>
  <path fill="#ffffff" d="M759.06 1125.31 741.433 1134.84C740.704 1135.24 739.794 1134.97 739.4 1134.24 739.006 1133.51 739.277 1132.6 740.005 1132.2L756.671 1123.19 759.06 1125.31ZM772.539 1137.26 756.005 1146.2C755.277 1146.6 755.006 1147.51 755.4 1148.24 755.794 1148.97 756.704 1149.24 757.433 1148.84L774.927 1139.38 772.539 1137.26Z" class="colorffffff svgShape"></path>
  <path fill="#ff8b5a" d="M646.816 715.83L647.34 800.829L523.843 801.59C500.371 801.735 481.226 782.824 481.081 759.353V759.353C480.937 735.881 499.847 716.736 523.319 716.592L646.816 715.83Z" class="color5abcff svgShape"></path>
  <path stroke="#080302" stroke-linecap="round" stroke-width="3" d="M534.992 716.78L645.818 716.928" class="colorStroke080202 svgStroke"></path>
  <rect width="54" height="387" x="935" y="805" fill="#c2c2c2" class="colorc2c2c2 svgShape"></rect>
  <path stroke="#080302" stroke-linecap="round" stroke-width="3" d="M710.5 756 730.5 792M727 756 747 792M740 757.5 760 792" class="colorStroke080202 svgStroke"></path>
  <rect width="188" height="42" x="478" y="951" fill="#9c2405" class="color9c050d svgShape"></rect>
  <rect width="41" height="387" x="562" y="805" fill="#c2c2c2" class="colorc2c2c2 svgShape"></rect>
  <rect width="424" height="47" x="562" y="805" fill="#9c2405" class="color9c050d svgShape"></rect>
  <path fill="#c2c2c2" d="M684 772H949V805H704C692.954 805 684 796.046 684 785V772Z" class="colorc2c2c2 svgShape"></path>
  <path fill="#c2c2c2" d="M779.188 681.882C783.79 664.279 799.692 652 817.887 652H937.198C963.398 652 982.524 676.769 975.897 702.117L949 805H772.901C759.801 805 750.238 792.615 753.551 779.941L779.188 681.882Z" class="colorc2c2c2 svgShape"></path>
  <circle cx="879" cy="722" r="20" fill="#fffefe" class="colorfffefe svgShape"></circle>
</svg>
